# xmcd
# Track frame offsets:
# 150
# 12855
# 27674
# 43756
# 60993
# 76180
# 91340
# 107312
# 123096
# 136513
# 156613
# 173065
#
# Disc length: 2470 seconds
# Revision: 0
# Processed by: cddbd v1.5.1PL0 Copyright (c) Steve Scherf et al.
# Submitted via: VisiTrax 2.9.9.209 - For more info visit www.synapsa.com
#
DISCID=8709a40c
DTITLE=Trick Pony - Trick Pony
DYEAR=1900
DGENRE=
TTITLE0=Pour Me
TTITLE1=Party of One
TTITLE2=Big River - Johnny Cash
TTITLE3=Every Other Memory
TTITLE4=More Like Me
TTITLE5=Just What I Do
TTITLE6=Stay in This Moment
TTITLE7=On a Night Like This
TTITLE8=One in a Row
TTITLE9=Now Would Be the Time
TTITLE10=Can't Say That on the Radio
TTITLE11=Spent
EXTD=
EXTT0=
EXTT1=
EXTT2=
EXTT3=
EXTT4=
EXTT5=
EXTT6=
EXTT7=
EXTT8=
EXTT9=
EXTT10=
EXTT11=
PLAYORDER=
